<mxfile host="app.diagrams.net" modified="2024-02-19T16:02:28.634Z" agent="Mozilla/5.0 (Windows NT 10.0; Win64; x64) AppleWebKit/537.36 (KHTML, like Gecko) Chrome/116.0.0.0 Safari/537.36 OPR/102.0.0.0" etag="ghl8Dhvd6EIIeycoyKSR" version="23.1.5" type="github">
  <diagram name="PÃ¡gina-1" id="KjegkySu57Kp1y-LZv5Z">
    <mxGraphModel dx="1074" dy="771" grid="1" gridSize="10" guides="1" tooltips="1" connect="1" arrows="1" fold="1" page="1" pageScale="1" pageWidth="827" pageHeight="1169" math="0" shadow="0">
      <root>
        <mxCell id="0" />
        <mxCell id="1" parent="0" />
        <mxCell id="U7qVM6Fkb6j6vpYPgWp0-12" value="" style="shape=partialRectangle;whiteSpace=wrap;html=1;bottom=0;top=0;fillColor=none;rotation=90;" vertex="1" parent="1">
          <mxGeometry x="244" y="383.19" width="20" height="100" as="geometry" />
        </mxCell>
        <mxCell id="U7qVM6Fkb6j6vpYPgWp0-20" value="" style="shape=partialRectangle;whiteSpace=wrap;html=1;bottom=0;top=0;fillColor=none;rotation=-180;" vertex="1" parent="1">
          <mxGeometry x="654" y="313.19" width="20" height="110" as="geometry" />
        </mxCell>
        <mxCell id="U7qVM6Fkb6j6vpYPgWp0-21" value="" style="shape=partialRectangle;whiteSpace=wrap;html=1;bottom=0;top=0;fillColor=none;rotation=-180;" vertex="1" parent="1">
          <mxGeometry x="654" y="160.69" width="20" height="88.75" as="geometry" />
        </mxCell>
        <mxCell id="U7qVM6Fkb6j6vpYPgWp0-16" value="" style="shape=partialRectangle;whiteSpace=wrap;html=1;bottom=0;top=0;fillColor=none;rotation=-130;" vertex="1" parent="1">
          <mxGeometry x="557.08" y="115.82999999999998" width="20" height="189.32" as="geometry" />
        </mxCell>
        <mxCell id="U7qVM6Fkb6j6vpYPgWp0-13" value="" style="shape=partialRectangle;whiteSpace=wrap;html=1;bottom=0;top=0;fillColor=none;rotation=90;" vertex="1" parent="1">
          <mxGeometry x="534.94" y="88.5" width="20" height="109.38" as="geometry" />
        </mxCell>
        <mxCell id="U7qVM6Fkb6j6vpYPgWp0-15" value="" style="shape=partialRectangle;whiteSpace=wrap;html=1;bottom=0;top=0;fillColor=none;rotation=120;" vertex="1" parent="1">
          <mxGeometry x="232.61" y="97.41" width="20" height="223.01" as="geometry" />
        </mxCell>
        <mxCell id="U7qVM6Fkb6j6vpYPgWp0-2" value="PROFESSOR" style="rounded=0;whiteSpace=wrap;html=1;" vertex="1" parent="1">
          <mxGeometry x="34" y="113.19" width="180" height="60" as="geometry" />
        </mxCell>
        <mxCell id="U7qVM6Fkb6j6vpYPgWp0-3" value="DEPARTAMENTO" style="rounded=0;whiteSpace=wrap;html=1;" vertex="1" parent="1">
          <mxGeometry x="574" y="113.19" width="180" height="60" as="geometry" />
        </mxCell>
        <mxCell id="U7qVM6Fkb6j6vpYPgWp0-4" value="ALUNO" style="rounded=0;whiteSpace=wrap;html=1;" vertex="1" parent="1">
          <mxGeometry x="44" y="403.19" width="180" height="60" as="geometry" />
        </mxCell>
        <mxCell id="U7qVM6Fkb6j6vpYPgWp0-5" value="CURSO" style="rounded=0;whiteSpace=wrap;html=1;" vertex="1" parent="1">
          <mxGeometry x="574" y="403.19" width="180" height="60" as="geometry" />
        </mxCell>
        <mxCell id="U7qVM6Fkb6j6vpYPgWp0-6" value="AnoInsc" style="ellipse;whiteSpace=wrap;html=1;" vertex="1" parent="1">
          <mxGeometry x="264" y="333.19" width="120" height="50" as="geometry" />
        </mxCell>
        <mxCell id="U7qVM6Fkb6j6vpYPgWp0-7" value="AnoConcl?" style="ellipse;whiteSpace=wrap;html=1;" vertex="1" parent="1">
          <mxGeometry x="418" y="333.19" width="136" height="50" as="geometry" />
        </mxCell>
        <mxCell id="U7qVM6Fkb6j6vpYPgWp0-8" value="DIRECTOR_DE" style="rhombus;whiteSpace=wrap;html=1;" vertex="1" parent="1">
          <mxGeometry x="264" y="83.19" width="260" height="120" as="geometry" />
        </mxCell>
        <mxCell id="U7qVM6Fkb6j6vpYPgWp0-9" value="TRABALHA_EM" style="rhombus;whiteSpace=wrap;html=1;" vertex="1" parent="1">
          <mxGeometry x="274" y="213.19" width="260" height="120" as="geometry" />
        </mxCell>
        <mxCell id="U7qVM6Fkb6j6vpYPgWp0-10" value="RESPONSAVEL_POR" style="rhombus;whiteSpace=wrap;html=1;" vertex="1" parent="1">
          <mxGeometry x="534" y="223.19" width="260" height="130" as="geometry" />
        </mxCell>
        <mxCell id="U7qVM6Fkb6j6vpYPgWp0-11" value="INSCRITO_EM" style="rhombus;whiteSpace=wrap;html=1;" vertex="1" parent="1">
          <mxGeometry x="274" y="368.19" width="260" height="130" as="geometry" />
        </mxCell>
        <mxCell id="U7qVM6Fkb6j6vpYPgWp0-17" value="" style="endArrow=none;html=1;rounded=0;entryX=0;entryY=0.5;entryDx=0;entryDy=0;exitX=1;exitY=0.5;exitDx=0;exitDy=0;" edge="1" parent="1" source="U7qVM6Fkb6j6vpYPgWp0-11" target="U7qVM6Fkb6j6vpYPgWp0-5">
          <mxGeometry width="50" height="50" relative="1" as="geometry">
            <mxPoint x="524" y="463.19" as="sourcePoint" />
            <mxPoint x="574" y="413.19" as="targetPoint" />
          </mxGeometry>
        </mxCell>
        <mxCell id="U7qVM6Fkb6j6vpYPgWp0-25" value="" style="endArrow=none;html=1;rounded=0;entryX=0.5;entryY=1;entryDx=0;entryDy=0;exitX=0;exitY=0;exitDx=0;exitDy=0;" edge="1" parent="1" source="U7qVM6Fkb6j6vpYPgWp0-11" target="U7qVM6Fkb6j6vpYPgWp0-6">
          <mxGeometry width="50" height="50" relative="1" as="geometry">
            <mxPoint x="364" y="463.19" as="sourcePoint" />
            <mxPoint x="414" y="413.19" as="targetPoint" />
          </mxGeometry>
        </mxCell>
        <mxCell id="U7qVM6Fkb6j6vpYPgWp0-26" value="" style="endArrow=none;html=1;rounded=0;entryX=0.5;entryY=1;entryDx=0;entryDy=0;exitX=1;exitY=0;exitDx=0;exitDy=0;" edge="1" parent="1" source="U7qVM6Fkb6j6vpYPgWp0-11" target="U7qVM6Fkb6j6vpYPgWp0-7">
          <mxGeometry width="50" height="50" relative="1" as="geometry">
            <mxPoint x="519" y="411.19" as="sourcePoint" />
            <mxPoint x="504" y="393.19" as="targetPoint" />
          </mxGeometry>
        </mxCell>
        <mxCell id="U7qVM6Fkb6j6vpYPgWp0-27" value="1" style="whiteSpace=wrap;html=1;aspect=fixed;fontSize=22;fillColor=none;strokeColor=none;" vertex="1" parent="1">
          <mxGeometry x="232.61" y="113.19" width="30" height="30" as="geometry" />
        </mxCell>
        <mxCell id="U7qVM6Fkb6j6vpYPgWp0-28" value="1" style="whiteSpace=wrap;html=1;aspect=fixed;fontSize=22;fillColor=none;strokeColor=none;" vertex="1" parent="1">
          <mxGeometry x="527.08" y="103" width="30" height="30" as="geometry" />
        </mxCell>
        <mxCell id="U7qVM6Fkb6j6vpYPgWp0-29" value="1" style="whiteSpace=wrap;html=1;aspect=fixed;fontSize=22;fillColor=none;strokeColor=none;" vertex="1" parent="1">
          <mxGeometry x="520" y="195.48999999999998" width="30" height="30" as="geometry" />
        </mxCell>
        <mxCell id="U7qVM6Fkb6j6vpYPgWp0-31" value="N" style="whiteSpace=wrap;html=1;aspect=fixed;fontSize=22;fillColor=none;strokeColor=none;" vertex="1" parent="1">
          <mxGeometry x="252.61" y="183.19" width="30" height="30" as="geometry" />
        </mxCell>
        <mxCell id="U7qVM6Fkb6j6vpYPgWp0-33" value="M" style="whiteSpace=wrap;html=1;aspect=fixed;fontSize=22;fillColor=none;strokeColor=none;" vertex="1" parent="1">
          <mxGeometry x="236.13000000000002" y="393.19" width="30" height="30" as="geometry" />
        </mxCell>
        <mxCell id="U7qVM6Fkb6j6vpYPgWp0-34" value="N" style="whiteSpace=wrap;html=1;aspect=fixed;fontSize=22;fillColor=none;strokeColor=none;" vertex="1" parent="1">
          <mxGeometry x="534" y="403.19" width="30" height="30" as="geometry" />
        </mxCell>
        <mxCell id="U7qVM6Fkb6j6vpYPgWp0-35" value="M" style="whiteSpace=wrap;html=1;aspect=fixed;fontSize=22;fillColor=none;strokeColor=none;" vertex="1" parent="1">
          <mxGeometry x="674" y="190.07" width="30" height="30" as="geometry" />
        </mxCell>
        <mxCell id="U7qVM6Fkb6j6vpYPgWp0-36" value="N" style="whiteSpace=wrap;html=1;aspect=fixed;fontSize=22;fillColor=none;strokeColor=none;" vertex="1" parent="1">
          <mxGeometry x="674" y="363.19" width="30" height="30" as="geometry" />
        </mxCell>
        <mxCell id="U7qVM6Fkb6j6vpYPgWp0-37" value="" style="endArrow=none;html=1;rounded=0;entryX=0;entryY=0.5;entryDx=0;entryDy=0;exitX=1;exitY=0.5;exitDx=0;exitDy=0;" edge="1" parent="1" source="U7qVM6Fkb6j6vpYPgWp0-2" target="U7qVM6Fkb6j6vpYPgWp0-8">
          <mxGeometry width="50" height="50" relative="1" as="geometry">
            <mxPoint x="170" y="290" as="sourcePoint" />
            <mxPoint x="220" y="240" as="targetPoint" />
          </mxGeometry>
        </mxCell>
      </root>
    </mxGraphModel>
  </diagram>
</mxfile>
